<svg width="25" height="33" viewBox="0 0 25 33" fill="none" xmlns="http://www.w3.org/2000/svg">
<path d="M13.4116 0.342754C13.4575 0.445135 13.4966 0.550186 13.5309 0.657017C13.6088 0.902729 13.6582 1.15734 13.6889 1.41329C13.7059 1.55396 13.733 2.29198 13.733 2.29198C13.733 2.29198 14.8031 2.19005 15.5767 2.61381C16.0063 2.84929 16.374 3.19471 16.6268 3.61358C16.7679 3.84727 16.6802 3.85796 16.483 3.99684C16.3749 4.07295 16.2671 4.14863 16.159 4.22474C15.903 4.40458 15.6355 4.56304 15.3764 4.71617C14.735 5.09587 14.2698 5.38965 14.0192 5.8103C14.0695 5.82855 15.5518 5.26323 16.24 5.00995C16.4216 4.94319 16.6028 4.87641 16.7822 4.80875C17.7214 4.45399 18.7105 4.06494 19.5771 3.55393C19.7912 3.42751 19.9996 3.29353 20.2088 3.14708C18.3294 1.44534 15.9195 0.331181 13.2719 0.0770111C13.3101 0.0814624 13.396 0.307589 13.4116 0.342754Z" fill="url(#paint0_linear_1368_246)"/>
<path d="M6.20753 4.34493C6.63886 4.5301 7.0831 4.68056 7.5536 4.83991C7.95289 4.97523 8.36552 5.11501 8.77237 5.27881C9.2037 5.45241 10.1563 5.82944 10.2048 5.81253C9.95464 5.39099 9.48948 5.09676 8.84671 4.71617C8.58764 4.56304 8.32012 4.40458 8.06417 4.22474C7.95066 4.14506 7.53936 3.95099 7.50241 3.82902C7.43876 3.61803 7.79442 3.30688 7.92351 3.18136C8.13361 2.97749 8.37264 2.80388 8.62993 2.665C8.92639 2.50476 9.24822 2.3908 9.57984 2.32982C9.65997 2.31513 10.4906 2.22922 10.4915 2.29599C10.4786 1.34252 10.6326 0.60004 10.9504 0.0783463C8.33659 0.328955 5.89816 1.41775 3.99255 3.14396C4.13945 3.24367 4.2899 3.3416 4.44392 3.43597C4.98787 3.76982 5.58123 4.07607 6.20753 4.34493Z" fill="url(#paint1_linear_1368_246)"/>
<path d="M11.1361 19.941C11.1565 19.9285 11.1766 19.9161 11.1971 19.9032C13.2224 18.6439 15.0243 16.9488 16.1198 14.8304C15.4854 15.4972 14.6762 15.9838 13.8006 16.2638C13.5665 16.3354 13.3261 16.3888 13.084 16.4285C13.104 15.3748 13.1311 14.4004 13.1628 13.9455C13.2549 12.6026 13.3252 11.0864 13.7414 9.79867C13.9302 9.21511 14.3486 8.83452 14.8587 8.6578C14.8689 8.6538 14.8787 8.64979 14.8894 8.64623C15.5558 8.40675 16.345 8.48821 16.9197 8.91242C17.6274 9.435 17.8064 10.6863 17.2508 11.4755C17.0933 11.6994 16.8351 11.861 16.6027 12.0217C16.4193 12.1485 16.2163 12.2482 16.016 12.3546C15.9577 12.3858 15.9435 12.4641 15.9884 12.5126C16.1393 12.6769 16.3232 12.8144 16.5297 12.9266C16.8654 13.0869 17.2099 13.1932 17.5526 13.2458C18.0708 13.3134 18.6227 13.2645 19.1222 13.0935C19.4614 12.9653 19.7765 12.7735 20.0529 12.5171C20.8052 11.8209 21.2049 10.9257 21.3011 9.92375C21.3634 9.27208 21.2788 8.60795 21.0095 8.00836C20.8804 7.7208 20.7113 7.45194 20.5119 7.20801C20.3432 7.00147 20.1388 6.82208 19.9488 6.6329C19.9003 6.58483 19.9123 6.50337 19.9728 6.47176C20.3734 6.26122 20.7335 5.97767 21.0678 5.67097C21.3336 5.42749 21.5873 5.16486 21.7707 4.8546C21.9541 4.54434 22.0271 4.2145 22.0222 3.88154C22.0173 3.56906 21.943 3.25391 21.8259 2.95077C21.8005 2.88534 21.7177 2.86531 21.6648 2.91116C21.1195 3.38166 20.5693 3.79786 19.9417 4.16821C19.0322 4.70459 18.0289 5.1012 17.0363 5.476C16.0476 5.84902 15.0078 6.18732 14.0922 6.72015C13.8625 6.85369 13.627 6.97832 13.3987 7.11498C13.3435 7.14792 13.2718 7.12343 13.2509 7.0629C13.1543 6.7878 13.0929 6.48022 13.1231 6.26656C13.327 4.83502 14.6401 4.39166 15.6613 3.7026C15.7107 3.66922 15.7205 3.59889 15.6817 3.55348C15.3141 3.12349 14.7443 3.0082 14.1616 3.00775C13.7579 3.022 12.9896 3.10746 12.9896 3.10524C12.9834 3.10613 12.9767 3.10702 12.9705 3.10746C13.1329 1.50855 12.8774 0.730905 12.6028 0.353434C12.4817 0.198974 12.3295 0.0774526 12.1394 0.00534136C12.1283 0.00267057 12.1194 0.000890262 12.1136 0C12.1078 0.000890262 12.0989 0.00267057 12.0878 0.00534136C11.8977 0.0774526 11.7455 0.198974 11.6244 0.353434C11.3497 0.730905 11.0942 1.50811 11.2567 3.10702C11.2505 3.10613 11.2438 3.10524 11.238 3.10702C11.238 3.10702 10.4693 3.02155 10.066 3.00731C9.48285 3.00775 8.91308 3.12304 8.54585 3.55304C8.50712 3.59844 8.51647 3.66877 8.56633 3.70216C9.58701 4.39122 10.9006 4.83502 11.1045 6.26611C11.1347 6.47933 11.0733 6.78692 10.9767 7.06201C10.9553 7.12255 10.8832 7.14747 10.8285 7.11364C10.0887 6.66005 9.31326 6.26389 8.50801 5.93983C7.6587 5.59797 6.77022 5.36161 5.92803 4.99971C5.28793 4.72462 4.66564 4.40724 4.07228 4.04224C3.77538 3.85973 3.4856 3.66477 3.20517 3.45778C3.14685 3.4146 2.73199 3.12438 2.5437 2.95033C2.49118 2.90181 2.40705 2.92273 2.38034 2.98906C2.15021 3.55793 2.14709 4.22207 2.41595 4.78382C2.5713 5.10788 2.81033 5.33045 3.06228 5.57482C3.36897 5.87217 3.69837 6.14593 4.06872 6.36181C4.13371 6.39965 4.20003 6.43571 4.26725 6.46998C4.32022 6.49714 4.33714 6.56435 4.30509 6.61554C4.29975 6.624 4.29307 6.63156 4.28506 6.6378C3.28885 7.46084 2.79609 8.58168 2.92518 9.92286C3.02133 10.9253 3.42106 11.8205 4.17333 12.5171C4.44975 12.7735 4.7649 12.9653 5.10409 13.0935C5.60353 13.2645 6.1555 13.3134 6.67363 13.2458C7.01638 13.1932 7.36091 13.0864 7.69654 12.9266C7.90308 12.8149 8.08692 12.6769 8.23782 12.5126C8.28233 12.4641 8.26853 12.3858 8.21022 12.3546C8.00991 12.2478 7.80693 12.1481 7.62354 12.0217C7.39118 11.8605 7.133 11.6989 6.97543 11.4755C6.4199 10.6867 6.59885 9.43545 7.30661 8.91242C7.88172 8.48776 8.67093 8.40675 9.33685 8.64623C9.34709 8.64979 9.35732 8.65424 9.36756 8.6578C9.87768 8.83452 10.2965 9.21466 10.4848 9.79867C10.901 11.0864 10.9714 12.6026 11.0635 13.9455C11.0951 14.4022 11.1223 15.3824 11.1423 16.4405C10.8908 16.404 10.65 16.3537 10.4261 16.2914C9.14455 15.8827 8.04285 14.9733 7.34934 13.8227C7.16194 13.8787 6.97231 13.9219 6.78224 13.9513L6.76622 13.9535C6.58683 13.9771 6.40299 13.9887 6.2196 13.9887C5.75933 13.9887 5.29372 13.9126 4.87352 13.7688L4.86283 13.7652L4.85215 13.7612C4.41948 13.5979 4.02777 13.3553 3.68858 13.0406C2.84105 12.2558 2.33137 11.2013 2.2152 9.99142C2.09234 8.717 2.44444 7.58192 3.23811 6.66495C3.01732 6.50025 2.79476 6.30884 2.5664 6.08761L2.5299 6.052C2.35808 5.88597 2.17113 5.7048 2.00554 5.47868C1.76027 5.85659 1.53459 6.25053 1.33072 6.66005C0.337633 8.65691 -0.256618 10.9226 0.108389 13.1572C0.439122 15.1843 1.40862 17.5177 2.88868 18.9817C4.22318 20.302 6.09184 21.0182 7.96674 20.9261C9.08491 20.8713 10.1813 20.5286 11.1361 19.941Z" fill="url(#paint2_linear_1368_246)"/>
<path d="M24.1255 10.814C23.91 8.85233 23.2321 7.03976 22.2083 5.48224C21.9951 5.77291 21.7511 6.01239 21.549 6.19756C21.3559 6.37473 21.1702 6.53053 20.9877 6.66763C21.0131 6.69656 21.0385 6.72638 21.0634 6.7571C21.306 7.054 21.5068 7.37672 21.6594 7.7168C21.9666 8.39963 22.0881 9.18663 22.0107 9.99276C21.8945 11.2022 21.3852 12.2567 20.5373 13.0415C20.1985 13.3557 19.8068 13.5983 19.3737 13.7617L19.363 13.7657L19.3523 13.7693C18.9321 13.913 18.4665 13.9892 18.0063 13.9892C17.8229 13.9892 17.639 13.9771 17.4596 13.954L17.4436 13.9518C17.3225 13.9331 17.2019 13.9086 17.0822 13.8792C16.434 15.7581 15.2754 17.4879 13.8425 18.7855C11.3128 21.0765 7.82877 22.4925 4.4707 22.9341C6.39901 26.2307 8.71725 29.3137 11.0582 32.325C11.0693 32.3393 11.08 32.3531 11.0911 32.3673C11.7397 33.201 12.4906 33.218 13.1147 32.3758C14.6308 30.3299 16.1705 28.2988 17.6168 26.2036C19.7325 23.1384 21.6906 19.9731 23.1106 16.5104C23.8579 14.6876 24.3476 12.8327 24.1255 10.814Z" fill="url(#paint3_linear_1368_246)"/>
<defs>
<linearGradient id="paint0_linear_1368_246" x1="0.0160396" y1="33.8043" x2="25.0838" y2="-14.4444" gradientUnits="userSpaceOnUse">
<stop stop-color="#B07EB7"/>
<stop offset="0.4827" stop-color="#7414F5"/>
<stop offset="1" stop-color="#6714D2"/>
</linearGradient>
<linearGradient id="paint1_linear_1368_246" x1="-6.4044" y1="30.4685" x2="18.6633" y2="-17.7801" gradientUnits="userSpaceOnUse">
<stop stop-color="#B07EB7"/>
<stop offset="0.4827" stop-color="#7414F5"/>
<stop offset="1" stop-color="#6714D2"/>
</linearGradient>
<linearGradient id="paint2_linear_1368_246" x1="-1.72089" y1="32.9018" x2="23.3468" y2="-15.3468" gradientUnits="userSpaceOnUse">
<stop stop-color="#B07EB7"/>
<stop offset="0.4827" stop-color="#7414F5"/>
<stop offset="1" stop-color="#6714D2"/>
</linearGradient>
<linearGradient id="paint3_linear_1368_246" x1="5.1672" y1="36.4806" x2="30.235" y2="-11.7681" gradientUnits="userSpaceOnUse">
<stop stop-color="#B07EB7"/>
<stop offset="0.4827" stop-color="#7414F5"/>
<stop offset="1" stop-color="#6714D2"/>
</linearGradient>
</defs>
</svg>
